<?xml version="1.0" standalone="no"?>
<!DOCTYPE svg PUBLIC "-//W3C//DTD SVG 20010904//EN"
 "http://www.w3.org/TR/2001/REC-SVG-20010904/DTD/svg10.dtd">
<svg version="1.0" xmlns="http://www.w3.org/2000/svg"
 width="135.000000pt" height="135.000000pt" viewBox="0 0 135.000000 135.000000"
 preserveAspectRatio="xMidYMid meet">
<metadata>
Created by potrace 1.14, written by Peter Selinger 2001-2017
</metadata>
<g transform="translate(0.000000,135.000000) scale(0.100000,-0.100000)"
fill="#000000" stroke="none">
<path d="M325 1070 c-110 -35 -201 -117 -253 -227 -24 -52 -27 -70 -27 -163 0
-99 2 -109 33 -173 52 -104 136 -179 247 -217 36 -12 86 -18 167 -19 l116 -2
3 38 c2 21 3 52 1 70 l-3 31 -98 0 c-162 -1 -252 45 -306 155 -63 129 -14 278
114 351 51 28 64 30 173 34 l119 4 -3 -103 -3 -104 -90 0 -90 0 -5 -35 c-3
-19 -3 -50 -1 -68 l3 -33 92 3 91 2 3 -102 c2 -71 6 -102 15 -103 7 -1 37 -2
67 -3 l55 -1 3 -68 3 -69 127 4 c147 5 210 24 291 88 128 101 181 263 141 430
-26 107 -119 213 -236 267 -53 24 -73 28 -191 31 l-133 4 0 -71 0 -71 90 0
c125 0 181 -14 240 -61 87 -68 126 -184 96 -282 -28 -94 -116 -175 -208 -192
-20 -4 -67 -7 -105 -7 -126 0 -113 -12 -112 102 0 87 2 100 17 101 9 0 53 1
97 2 l80 2 1 63 c0 38 -4 63 -10 63 -6 1 -45 3 -86 4 -41 1 -81 3 -88 4 -10 1
-13 23 -12 89 1 48 1 93 1 100 -1 8 -22 12 -71 12 l-69 0 0 58 c1 31 0 63 0
70 -2 21 -213 15 -286 -8z"/>
</g>
</svg>
